<svg viewBox="0 0 960 580" xmlns="http://www.w3.org/2000/svg" font-family="'Georgia', serif">
  <defs>
    <linearGradient id="bg2" x1="0%" y1="0%" x2="100%" y2="100%">
      <stop offset="0%" style="stop-color:#080c14"/>
      <stop offset="100%" style="stop-color:#0c1020"/>
    </linearGradient>
    <linearGradient id="centerGrad" cx="50%" cy="50%" r="50%">
      <stop offset="0%" style="stop-color:#1a2a1a"/>
      <stop offset="100%" style="stop-color:#080e08"/>
    </linearGradient>
    <filter id="glow2">
      <feGaussianBlur stdDeviation="3.5" result="coloredBlur"/>
      <feMerge><feMergeNode in="coloredBlur"/><feMergeNode in="SourceGraphic"/></feMerge>
    </filter>
    <filter id="faintGlow">
      <feGaussianBlur stdDeviation="6" result="coloredBlur"/>
      <feMerge><feMergeNode in="coloredBlur"/><feMergeNode in="SourceGraphic"/></feMerge>
    </filter>
  </defs>

  <rect width="960" height="580" fill="url(#bg2)"/>

  <!-- Subtle radial lines from center -->
  <g stroke="#ffffff04" stroke-width="1">
    <line x1="480" y1="290" x2="150" y2="140"/><line x1="480" y1="290" x2="480" y2="80"/>
    <line x1="480" y1="290" x2="810" y2="140"/><line x1="480" y1="290" x2="820" y2="290"/>
    <line x1="480" y1="290" x2="810" y2="440"/><line x1="480" y1="290" x2="480" y2="500"/>
    <line x1="480" y1="290" x2="150" y2="440"/><line x1="480" y1="290" x2="140" y2="290"/>
  </g>

  <!-- Title -->
  <text x="480" y="36" text-anchor="middle" fill="#c9a84c" font-size="18" letter-spacing="4" filter="url(#glow2)">COHERENCE BRIDGE THEOREM</text>
  <text x="480" y="56" text-anchor="middle" fill="#6a8090" font-size="11" letter-spacing="2">dm³ Category — Exact Morphisms Across Domains</text>

  <!-- CENTER NODE — dm³ Crystal -->
  <circle cx="480" cy="290" r="68" fill="#0a140a" stroke="#4a8050" stroke-width="1.5" filter="url(#faintGlow)"/>
  <circle cx="480" cy="290" r="52" fill="none" stroke="#3a6040" stroke-width="0.5" stroke-dasharray="3,3"/>
  <circle cx="480" cy="290" r="30" fill="#0e1e0e" stroke="#5a9060" stroke-width="1"/>
  <!-- Crystal hexagon at center -->
  <polygon points="480,264 504,277 504,303 480,316 456,303 456,277" fill="none" stroke="#6ab070" stroke-width="1.5" filter="url(#glow2)"/>
  <text x="480" y="285" text-anchor="middle" fill="#8ad090" font-size="11" font-weight="bold">dm³</text>
  <text x="480" y="300" text-anchor="middle" fill="#6ab070" font-size="9">CRYSTAL</text>
  <text x="480" y="315" text-anchor="middle" fill="#4a8050" font-size="8">G = U∘F∘K∘C</text>

  <!-- DOMAIN NODES — 6 satellites -->

  <!-- 1: SATURN (top) -->
  <rect x="385" y="62" width="190" height="72" rx="8" fill="#0a0e1e" stroke="#4a6ab0" stroke-width="1.5"/>
  <circle cx="410" cy="98" r="16" fill="#c9a84c" opacity="0.2"/>
  <circle cx="410" cy="98" r="10" fill="#c9a030" opacity="0.5"/>
  <polygon points="410,82 420,88 420,100 410,106 400,100 400,88" fill="none" stroke="#5090d0" stroke-width="1.2" filter="url(#glow2)"/>
  <text x="430" y="90" fill="#8ab0d8" font-size="11" font-weight="bold">SATURN</text>
  <text x="430" y="105" fill="#6a8ab0" font-size="9">n=6 polar hexagon</text>
  <text x="430" y="119" fill="#4a6a90" font-size="8.5">40+ yr fixed point</text>
  <line x1="480" y1="134" x2="480" y2="222" stroke="#4a6ab0" stroke-width="1.2" stroke-dasharray="5,3"/>

  <!-- 2: MARKET (upper right) -->
  <rect x="730" y="110" width="185" height="72" rx="8" fill="#1a0e0a" stroke="#b07040" stroke-width="1.5"/>
  <text x="760" y="137" fill="#d0a060" font-size="11" font-weight="bold">MARKET</text>
  <text x="748" y="152" fill="#b08050" font-size="9">Flash crash folding</text>
  <text x="748" y="167" fill="#907040" font-size="8.5">Volatility regime shift</text>
  <!-- Zigzag chart icon -->
  <polyline points="738,158 748,148 758,155 768,140 778,160" fill="none" stroke="#d0a06088" stroke-width="1.5"/>
  <line x1="730" y1="146" x2="548" y2="256" stroke="#b07040" stroke-width="1" stroke-dasharray="5,3"/>

  <!-- 3: HPA AXIS (lower right) -->
  <rect x="730" y="350" width="185" height="72" rx="8" fill="#1a0a14" stroke="#a04880" stroke-width="1.5"/>
  <text x="760" y="377" fill="#d070a0" font-size="11" font-weight="bold">HPA AXIS</text>
  <text x="748" y="392" fill="#a05080" font-size="9">Cortisol threshold κ*</text>
  <text x="748" y="407" fill="#804060" font-size="8.5">Stress response fold</text>
  <line x1="730" y1="386" x2="548" y2="322" stroke="#a04880" stroke-width="1" stroke-dasharray="5,3"/>

  <!-- 4: COLLATZ (bottom) -->
  <rect x="385" y="438" width="190" height="72" rx="8" fill="#0a141a" stroke="#408090" stroke-width="1.5"/>
  <text x="480" y="462" text-anchor="middle" fill="#60b0c0" font-size="11" font-weight="bold">COLLATZ</text>
  <text x="480" y="478" text-anchor="middle" fill="#408090" font-size="9">Orbit → {4, 2, 1}</text>
  <text x="480" y="493" text-anchor="middle" fill="#306070" font-size="8.5">AXLE Target 5</text>
  <!-- Number spiral icon -->
  <text x="398" y="490" fill="#408090" font-size="14">↻</text>
  <line x1="480" y1="438" x2="480" y2="358" stroke="#408090" stroke-width="1.2" stroke-dasharray="5,3"/>

  <!-- 5: NEURAL (lower left) -->
  <rect x="48" y="350" width="185" height="72" rx="8" fill="#0e0a1a" stroke="#6050a0" stroke-width="1.5"/>
  <text x="78" y="377" fill="#9080d0" font-size="11" font-weight="bold">NEURAL</text>
  <text x="62" y="392" fill="#7060b0" font-size="9">θ-γ phase coupling</text>
  <text x="62" y="407" fill="#504890" font-size="8.5">Memory encoding</text>
  <!-- Sine waves icon -->
  <path d="M 56 398 Q 62 390 68 398 Q 74 406 80 398 Q 86 390 92 398" fill="none" stroke="#806080" stroke-width="1"/>
  <line x1="233" y1="386" x2="412" y2="322" stroke="#6050a0" stroke-width="1" stroke-dasharray="5,3"/>

  <!-- 6: BIOLOGICAL (upper left) -->
  <rect x="48" y="110" width="185" height="72" rx="8" fill="#0a1808" stroke="#508040" stroke-width="1.5"/>
  <text x="78" y="137" fill="#80c060" font-size="11" font-weight="bold">BIOLOGICAL</text>
  <text x="62" y="152" fill="#60a040" font-size="9">Morphogen gradients</text>
  <text x="62" y="167" fill="#408030" font-size="8.5">Tissue folding</text>
  <text x="56" y="170" fill="#508040" font-size="18">⌬</text>
  <line x1="233" y1="146" x2="412" y2="256" stroke="#508040" stroke-width="1" stroke-dasharray="5,3"/>

  <!-- MORPHISM LABELS on connector lines -->
  <text x="480" y="185" text-anchor="middle" fill="#6a8ab055" font-size="9" transform="rotate(0,480,185)">F_sat</text>
  <text x="620" y="198" fill="#b0704055" font-size="9" transform="rotate(-35,620,198)">F_mkt</text>
  <text x="628" y="375" fill="#a0488055" font-size="9" transform="rotate(35,628,375)">F_hpa</text>
  <text x="480" y="420" text-anchor="middle" fill="#40809055" font-size="9">F_col</text>
  <text x="318" y="375" fill="#60509055" font-size="9" transform="rotate(-35,318,375)">F_neu</text>
  <text x="320" y="198" fill="#50804055" font-size="9" transform="rotate(35,320,198)">F_bio</text>

  <!-- Center annotation: what "exact morphism" means -->
  <rect x="200" y="240" width="560" height="24" rx="3" fill="none"/>
  <!-- The key claim box -->
  <rect x="130" y="510" width="700" height="55" rx="5" fill="#0a0e10" stroke="#c9a84c22" stroke-width="1"/>
  <text x="480" y="532" text-anchor="middle" fill="#c9a84c88" font-size="10" letter-spacing="2">COHERENCE BRIDGE — CENTRAL CLAIM</text>
  <text x="480" y="550" text-anchor="middle" fill="#8a9ab0" font-size="10">Each domain orbit is a functor F_i : dm³ → Domain_i preserving the contact normal form</text>
  <text x="480" y="564" text-anchor="middle" fill="#5a6a7a" font-size="9">Not analogy — exact morphism. Formal verification status: conjectured / open (Volume VI, AXLE Target 5)</text>

  <!-- g64 kether symbol at center background -->
  <text x="480" y="298" text-anchor="middle" fill="#4a8050" font-size="7" letter-spacing="1" opacity="0.4">g⁶⁴ KETHER ORTHOGON</text>

  <!-- TOGT level badge -->
  <text x="480" y="44" text-anchor="middle" fill="#c9a84c22" font-size="8" letter-spacing="3">Principia Orthogona — Principia Orthogona — github.com/totogt/axle</text>
</svg>
