<svg viewBox="0 0 960 600" xmlns="http://www.w3.org/2000/svg" font-family="'Georgia', serif">
  <defs>
    <linearGradient id="appBg" x1="0%" y1="0%" x2="100%" y2="100%">
      <stop offset="0%" style="stop-color:#07090e"/>
      <stop offset="100%" style="stop-color:#0a0d16"/>
    </linearGradient>
    <filter id="gA">
      <feGaussianBlur stdDeviation="2" result="coloredBlur"/>
      <feMerge><feMergeNode in="coloredBlur"/><feMergeNode in="SourceGraphic"/></feMerge>
    </filter>
  </defs>

  <rect width="960" height="600" fill="url(#appBg)"/>

  <!-- Title -->
  <text x="480" y="36" text-anchor="middle" fill="#c9a84c" font-size="18" letter-spacing="4" filter="url(#gA)">TOGT — DOMAIN APPLICATION MAP</text>
  <text x="480" y="56" text-anchor="middle" fill="#5a7080" font-size="11" letter-spacing="2">Potential Impact across 20+ fields (Copilot Survey, 2024)</text>
  <line x1="60" y1="66" x2="900" y2="66" stroke="#c9a84c18" stroke-width="0.5"/>

  <!-- Helper macro: domain cards laid in 4x5 grid -->
  <!-- Row 1 -->

  <!-- Quantum Computing -->
  <rect x="30" y="80" width="172" height="95" rx="6" fill="#080e1a" stroke="#3060a0" stroke-width="1"/>
  <text x="116" y="103" text-anchor="middle" fill="#6090d0" font-size="11" font-weight="bold">QUANTUM</text>
  <text x="116" y="118" text-anchor="middle" fill="#6090d0" font-size="10">COMPUTING</text>
  <line x1="46" y1="125" x2="186" y2="125" stroke="#3060a022" stroke-width="0.5"/>
  <text x="44" y="140" fill="#406080" font-size="8.5">Anyon braiding → F operator</text>
  <text x="44" y="154" fill="#406080" font-size="8.5">Majorana qubits (TQFT)</text>
  <text x="44" y="168" fill="#305070" font-size="8">Status: analogy mapped</text>

  <!-- Topological QFT -->
  <rect x="222" y="80" width="172" height="95" rx="6" fill="#0a0e1a" stroke="#4060a0" stroke-width="1"/>
  <text x="308" y="103" text-anchor="middle" fill="#7090c0" font-size="11" font-weight="bold">TOPOLOGICAL</text>
  <text x="308" y="118" text-anchor="middle" fill="#7090c0" font-size="10">QFT</text>
  <line x1="238" y1="125" x2="378" y2="125" stroke="#4060a022" stroke-width="0.5"/>
  <text x="236" y="140" fill="#5070a0" font-size="8.5">Homology / cohomology</text>
  <text x="236" y="154" fill="#5070a0" font-size="8.5">Topological invariants</text>
  <text x="236" y="168" fill="#3050a0" font-size="8">Status: framework aligned</text>

  <!-- Economic Forecasting -->
  <rect x="414" y="80" width="172" height="95" rx="6" fill="#140e08" stroke="#a07030" stroke-width="1"/>
  <text x="500" y="103" text-anchor="middle" fill="#d0a060" font-size="11" font-weight="bold">ECONOMIC</text>
  <text x="500" y="118" text-anchor="middle" fill="#d0a060" font-size="10">FORECASTING</text>
  <line x1="430" y1="125" x2="570" y2="125" stroke="#a0703022" stroke-width="0.5"/>
  <text x="428" y="140" fill="#907040" font-size="8.5">TDA persistent homology</text>
  <text x="428" y="154" fill="#907040" font-size="8.5">Regime bifurcations</text>
  <text x="428" y="168" fill="#705030" font-size="8">Status: TDA validated</text>

  <!-- Architecture -->
  <rect x="606" y="80" width="172" height="95" rx="6" fill="#0e1208" stroke="#6080a0" stroke-width="1"/>
  <text x="692" y="103" text-anchor="middle" fill="#90b070" font-size="11" font-weight="bold">ARCHITECTURE</text>
  <text x="692" y="118" text-anchor="middle" fill="#90b070" font-size="10">&amp; URBAN PLAN</text>
  <line x1="622" y1="125" x2="762" y2="125" stroke="#60804022" stroke-width="0.5"/>
  <text x="620" y="140" fill="#607050" font-size="8.5">g6=33 growth law</text>
  <text x="620" y="154" fill="#607050" font-size="8.5">500×500 cubit courtyard</text>
  <text x="620" y="168" fill="#405040" font-size="8">Status: symbolic/proposed</text>

  <!-- Biological -->
  <rect x="758" y="80" width="172" height="95" rx="6" fill="#081408" stroke="#508050" stroke-width="1"/>
  <text x="844" y="103" text-anchor="middle" fill="#70c070" font-size="11" font-weight="bold">BIOLOGICAL</text>
  <text x="844" y="118" text-anchor="middle" fill="#70c070" font-size="10">MORPHOGEN</text>
  <line x1="774" y1="125" x2="914" y2="125" stroke="#50805022" stroke-width="0.5"/>
  <text x="772" y="140" fill="#508050" font-size="8.5">Vertex / cell center models</text>
  <text x="772" y="154" fill="#508050" font-size="8.5">Tissue folding, growth</text>
  <text x="772" y="168" fill="#406040" font-size="8">Status: analogy mapped</text>

  <!-- Row 2 -->

  <!-- Neural -->
  <rect x="30" y="192" width="172" height="95" rx="6" fill="#0e0a18" stroke="#7060a0" stroke-width="1"/>
  <text x="116" y="215" text-anchor="middle" fill="#a090d0" font-size="11" font-weight="bold">NEURAL</text>
  <text x="116" y="230" text-anchor="middle" fill="#a090d0" font-size="10">GEOMETRY</text>
  <line x1="46" y1="237" x2="186" y2="237" stroke="#706090022" stroke-width="0.5"/>
  <text x="44" y="252" fill="#806090" font-size="8.5">θ-γ phase coupling</text>
  <text x="44" y="266" fill="#806090" font-size="8.5">Fruit fly connectome</text>
  <text x="44" y="280" fill="#605070" font-size="8">Status: analogy mapped</text>

  <!-- Saturn Hexagon -->
  <rect x="222" y="192" width="172" height="95" rx="6" fill="#0a0c14" stroke="#5070b0" stroke-width="1.5"/>
  <text x="308" y="215" text-anchor="middle" fill="#8090d0" font-size="11" font-weight="bold" filter="url(#gA)">SATURN</text>
  <text x="308" y="230" text-anchor="middle" fill="#8090d0" font-size="10">HEXAGON ★</text>
  <line x1="238" y1="237" x2="378" y2="237" stroke="#506090022" stroke-width="0.5"/>
  <text x="236" y="252" fill="#6080b0" font-size="8.5">n=6 Rossby selection</text>
  <text x="236" y="266" fill="#6080b0" font-size="8.5">40yr fixed point</text>
  <text x="236" y="280" fill="#5060a0" font-size="8">Status: best instantiation</text>

  <!-- Collatz -->
  <rect x="414" y="192" width="172" height="95" rx="6" fill="#080c14" stroke="#4080a0" stroke-width="1.5"/>
  <text x="500" y="215" text-anchor="middle" fill="#70b0d0" font-size="11" font-weight="bold" filter="url(#gA)">COLLATZ</text>
  <text x="500" y="230" text-anchor="middle" fill="#70b0d0" font-size="10">CONJECTURE ★</text>
  <line x1="430" y1="237" x2="570" y2="237" stroke="#4080a022" stroke-width="0.5"/>
  <text x="428" y="252" fill="#508090" font-size="8.5">AXLE Target 5</text>
  <text x="428" y="266" fill="#508090" font-size="8.5">dm³ orbit framework</text>
  <text x="428" y="280" fill="#406080" font-size="8">Status: paper published</text>

  <!-- HPA Stress -->
  <rect x="606" y="192" width="172" height="95" rx="6" fill="#140a10" stroke="#a04880" stroke-width="1"/>
  <text x="692" y="215" text-anchor="middle" fill="#d070a0" font-size="11" font-weight="bold">HPA AXIS</text>
  <text x="692" y="230" text-anchor="middle" fill="#d070a0" font-size="10">STRESS RESPONSE</text>
  <line x1="622" y1="237" x2="762" y2="237" stroke="#a0487022" stroke-width="0.5"/>
  <text x="620" y="252" fill="#904070" font-size="8.5">Cortisol threshold κ*</text>
  <text x="620" y="266" fill="#904070" font-size="8.5">Fold at stress peak</text>
  <text x="620" y="280" fill="#703060" font-size="8">Status: analogy mapped</text>

  <!-- Market Flash Crash -->
  <rect x="758" y="192" width="172" height="95" rx="6" fill="#12100a" stroke="#907030" stroke-width="1"/>
  <text x="844" y="215" text-anchor="middle" fill="#c0a050" font-size="11" font-weight="bold">MARKET</text>
  <text x="844" y="230" text-anchor="middle" fill="#c0a050" font-size="10">FLASH CRASH</text>
  <line x1="774" y1="237" x2="914" y2="237" stroke="#90703022" stroke-width="0.5"/>
  <text x="772" y="252" fill="#806030" font-size="8.5">Volatility regime shift</text>
  <text x="772" y="266" fill="#806030" font-size="8.5">Curvature spike fold</text>
  <text x="772" y="280" fill="#604020" font-size="8">Status: TDA analogy</text>

  <!-- Row 3 -->

  <!-- Protein Folding -->
  <rect x="30" y="304" width="172" height="95" rx="6" fill="#080e10" stroke="#408070" stroke-width="1"/>
  <text x="116" y="327" text-anchor="middle" fill="#60b090" font-size="11" font-weight="bold">PROTEIN</text>
  <text x="116" y="342" text-anchor="middle" fill="#60b090" font-size="10">FOLDING</text>
  <line x1="46" y1="349" x2="186" y2="349" stroke="#40807022" stroke-width="0.5"/>
  <text x="44" y="364" fill="#408060" font-size="8.5">Origami / fold topology</text>
  <text x="44" y="378" fill="#408060" font-size="8.5">Configuration space</text>
  <text x="44" y="392" fill="#306050" font-size="8">Status: deep analogy</text>

  <!-- Supernova / Plasma -->
  <rect x="222" y="304" width="172" height="95" rx="6" fill="#0e0c08" stroke="#807030" stroke-width="1"/>
  <text x="308" y="327" text-anchor="middle" fill="#c0a050" font-size="11" font-weight="bold">PLASMA &amp;</text>
  <text x="308" y="342" text-anchor="middle" fill="#c0a050" font-size="10">ASTROPHYSICS</text>
  <line x1="238" y1="349" x2="378" y2="349" stroke="#80703022" stroke-width="0.5"/>
  <text x="236" y="364" fill="#706030" font-size="8.5">Dusty plasma Γ&gt;170</text>
  <text x="236" y="378" fill="#706030" font-size="8.5">Supernova remnants</text>
  <text x="236" y="392" fill="#504020" font-size="8">Status: physics analogy</text>

  <!-- Graphene -->
  <rect x="414" y="304" width="172" height="95" rx="6" fill="#08100a" stroke="#408060" stroke-width="1"/>
  <text x="500" y="327" text-anchor="middle" fill="#70c080" font-size="11" font-weight="bold">MATERIALS</text>
  <text x="500" y="342" text-anchor="middle" fill="#70c080" font-size="10">GRAPHENE</text>
  <line x1="430" y1="349" x2="570" y2="349" stroke="#40806022" stroke-width="0.5"/>
  <text x="428" y="364" fill="#507060" font-size="8.5">Self-healing lattice</text>
  <text x="428" y="378" fill="#507060" font-size="8.5">Compression → fold</text>
  <text x="428" y="392" fill="#406050" font-size="8">Status: proposed</text>

  <!-- Cultural Semiotics -->
  <rect x="606" y="304" width="172" height="95" rx="6" fill="#100e14" stroke="#806090" stroke-width="1"/>
  <text x="692" y="327" text-anchor="middle" fill="#b090c0" font-size="11" font-weight="bold">CULTURAL</text>
  <text x="692" y="342" text-anchor="middle" fill="#b090c0" font-size="10">SEMIOTICS</text>
  <line x1="622" y1="349" x2="762" y2="349" stroke="#80609022" stroke-width="0.5"/>
  <text x="620" y="364" fill="#806090" font-size="8.5">Mythic narrative folds</text>
  <text x="620" y="378" fill="#806090" font-size="8.5">Symbol compression</text>
  <text x="620" y="392" fill="#604070" font-size="8">Status: philosophical</text>

  <!-- String Theory / GUT -->
  <rect x="758" y="304" width="172" height="95" rx="6" fill="#0c0c14" stroke="#6060a0" stroke-width="1"/>
  <text x="844" y="327" text-anchor="middle" fill="#9090d0" font-size="11" font-weight="bold">STRING / GUT</text>
  <text x="844" y="342" text-anchor="middle" fill="#9090d0" font-size="10">UNIFICATION</text>
  <line x1="774" y1="349" x2="914" y2="349" stroke="#6060a022" stroke-width="0.5"/>
  <text x="772" y="364" fill="#607090" font-size="8.5">Large cardinals</text>
  <text x="772" y="378" fill="#607090" font-size="8.5">ZFC translation (open)</text>
  <text x="772" y="392" fill="#405070" font-size="8">Status: vision / open</text>

  <!-- Legend -->
  <rect x="30" y="418" width="900" height="162" rx="5" fill="#060810" stroke="#c9a84c18" stroke-width="1"/>
  <text x="480" y="440" text-anchor="middle" fill="#c9a84c80" font-size="11" letter-spacing="3">OPERATOR ALGEBRA — UNIVERSAL TEMPLATE</text>

  <!-- 4-operator row -->
  <rect x="50" y="452" width="190" height="60" rx="4" fill="#0a1428" stroke="#3060a0" stroke-width="1"/>
  <text x="145" y="470" text-anchor="middle" fill="#7090d0" font-size="14" font-weight="bold">C</text>
  <text x="145" y="484" text-anchor="middle" fill="#4070a0" font-size="8.5">Compression</text>
  <text x="145" y="498" text-anchor="middle" fill="#305070" font-size="8">Lipschitz reduction of DOF</text>
  <text x="145" y="508" text-anchor="middle" fill="#203848" font-size="7.5">κ = Lip(C) &lt; 1</text>

  <rect x="255" y="452" width="190" height="60" rx="4" fill="#100a28" stroke="#7050a0" stroke-width="1"/>
  <text x="350" y="470" text-anchor="middle" fill="#a080d0" font-size="14" font-weight="bold">K</text>
  <text x="350" y="484" text-anchor="middle" fill="#7050a0" font-size="8.5">Curvature</text>
  <text x="350" y="498" text-anchor="middle" fill="#503880" font-size="8">Riemannian κ → κ* threshold</text>
  <text x="350" y="508" text-anchor="middle" fill="#382860" font-size="7.5">ε* = 1/3, κ* = ε* Ric(g)</text>

  <rect x="460" y="452" width="190" height="60" rx="4" fill="#081808" stroke="#408060" stroke-width="1"/>
  <text x="555" y="470" text-anchor="middle" fill="#70c090" font-size="14" font-weight="bold">F</text>
  <text x="555" y="484" text-anchor="middle" fill="#50a070" font-size="8.5">Folding</text>
  <text x="555" y="498" text-anchor="middle" fill="#406050" font-size="8">Whitney A₁: det(Df) → 0</text>
  <text x="555" y="508" text-anchor="middle" fill="#304040" font-size="7.5">Jacobian rank drops by 1</text>

  <rect x="665" y="452" width="190" height="60" rx="4" fill="#181008" stroke="#806040" stroke-width="1"/>
  <text x="760" y="470" text-anchor="middle" fill="#d0a060" font-size="14" font-weight="bold">U</text>
  <text x="760" y="484" text-anchor="middle" fill="#a08040" font-size="8.5">Unfolding</text>
  <text x="760" y="498" text-anchor="middle" fill="#806030" font-size="8">∇Φ = 0 at stable attractor</text>
  <text x="760" y="508" text-anchor="middle" fill="#604020" font-size="7.5">κ ≤ √(7/9) ≈ 0.882</text>

  <!-- Composition arrow row -->
  <text x="244" y="485" text-anchor="middle" fill="#c9a84c" font-size="18">→</text>
  <text x="450" y="485" text-anchor="middle" fill="#c9a84c" font-size="18">→</text>
  <text x="656" y="485" text-anchor="middle" fill="#c9a84c" font-size="18">→</text>

  <!-- Status legend row -->
  <text x="50" y="534" fill="#5a7090" font-size="9">★ = priority domains</text>
  <text x="200" y="534" fill="#50c070" font-size="9">■ analogy mapped</text>
  <text x="340" y="534" fill="#c0a050" font-size="9">■ TDA/empirical support</text>
  <text x="510" y="534" fill="#e06050" font-size="9">■ open / proposed</text>
  <text x="650" y="534" fill="#c9a84c66" font-size="9">■ philosophical / vision</text>

  <text x="480" y="558" text-anchor="middle" fill="#c9a84c22" font-size="8" letter-spacing="4">TOGT / PRINCIPIA ORTHOGONA — github.com/totogt/axle</text>
</svg>
